<svg xmlns="http://www.w3.org/2000/svg" width="880" height="380" viewBox="0 0 880 380" font-family="'IBM Plex Mono',ui-monospace,SFMono-Regular,Menlo,Consolas,monospace"><rect width="880" height="380" fill="#0b0d10"/><rect x="1" y="1" width="878" height="92" fill="none" stroke="#2a2f37"/><text x="19.0" y="43" font-size="24" font-weight="500" letter-spacing="-0.5" fill="#e6e8eb">2,167</text><text x="19.0" y="63" font-size="9" letter-spacing="1.4" text-anchor="start" fill="#8b9098">CONTRIBUTIONS</text><text x="19.0" y="78" font-size="9" letter-spacing="0.4" text-anchor="start" fill="#5a6068">since jun 2021</text><line x1="176.6" y1="1" x2="176.6" y2="93" stroke="#2a2f37"/><text x="194.6" y="43" font-size="24" font-weight="500" letter-spacing="-0.5" fill="#e6e8eb">1,009</text><text x="194.6" y="63" font-size="9" letter-spacing="1.4" text-anchor="start" fill="#8b9098">IN 2026</text><text x="194.6" y="78" font-size="9" letter-spacing="0.4" text-anchor="start" fill="#5a6068">71% private repos</text><line x1="352.2" y1="1" x2="352.2" y2="93" stroke="#2a2f37"/><text x="370.2" y="43" font-size="24" font-weight="500" letter-spacing="-0.5" fill="#e6e8eb">406</text><text x="370.2" y="63" font-size="9" letter-spacing="1.4" text-anchor="start" fill="#8b9098">ACTIVE DAYS</text><text x="370.2" y="78" font-size="9" letter-spacing="0.4" text-anchor="start" fill="#5a6068">87 this year</text><line x1="527.8" y1="1" x2="527.8" y2="93" stroke="#2a2f37"/><text x="545.8" y="43" font-size="24" font-weight="500" letter-spacing="-0.5" fill="#e6e8eb">22</text><text x="545.8" y="63" font-size="9" letter-spacing="1.4" text-anchor="start" fill="#8b9098">LONGEST STREAK</text><text x="545.8" y="78" font-size="9" letter-spacing="0.4" text-anchor="start" fill="#5a6068">days in a row</text><line x1="703.4" y1="1" x2="703.4" y2="93" stroke="#2a2f37"/><text x="721.4" y="43" font-size="24" font-weight="500" letter-spacing="-0.5" fill="#9ab6ff">375</text><text x="721.4" y="63" font-size="9" letter-spacing="1.4" text-anchor="start" fill="#8b9098">GUIDES</text><text x="721.4" y="78" font-size="9" letter-spacing="0.4" text-anchor="start" fill="#5a6068">across 26 decks</text><text x="2" y="111" font-size="9" letter-spacing="1.4" text-anchor="start" fill="#8b9098">CONTRIBUTIONS PER YEAR</text><rect x="1" y="123" width="878" height="64" fill="none" stroke="#2a2f37"/><text x="19.0" y="151" font-size="16" font-weight="500" fill="#e6e8eb">93</text><text x="19.0" y="169" font-size="9" letter-spacing="1.4" text-anchor="start" fill="#8b9098">2021</text><rect x="19.0" y="176" width="10.2" height="2" fill="#5a6068"/><line x1="147.3" y1="123" x2="147.3" y2="187" stroke="#2a2f37"/><text x="165.3" y="151" font-size="16" font-weight="500" fill="#e6e8eb">306</text><text x="165.3" y="169" font-size="9" letter-spacing="1.4" text-anchor="start" fill="#8b9098">2022</text><rect x="165.3" y="176" width="33.5" height="2" fill="#5a6068"/><line x1="293.7" y1="123" x2="293.7" y2="187" stroke="#2a2f37"/><text x="311.7" y="151" font-size="16" font-weight="500" fill="#e6e8eb">370</text><text x="311.7" y="169" font-size="9" letter-spacing="1.4" text-anchor="start" fill="#8b9098">2023</text><rect x="311.7" y="176" width="40.5" height="2" fill="#5a6068"/><line x1="440.0" y1="123" x2="440.0" y2="187" stroke="#2a2f37"/><text x="458.0" y="151" font-size="16" font-weight="500" fill="#e6e8eb">246</text><text x="458.0" y="169" font-size="9" letter-spacing="1.4" text-anchor="start" fill="#8b9098">2024</text><rect x="458.0" y="176" width="26.9" height="2" fill="#5a6068"/><line x1="586.3" y1="123" x2="586.3" y2="187" stroke="#2a2f37"/><text x="604.3" y="151" font-size="16" font-weight="500" fill="#e6e8eb">143</text><text x="604.3" y="169" font-size="9" letter-spacing="1.4" text-anchor="start" fill="#8b9098">2025</text><rect x="604.3" y="176" width="15.6" height="2" fill="#5a6068"/><line x1="732.7" y1="123" x2="732.7" y2="187" stroke="#2a2f37"/><text x="750.7" y="151" font-size="16" font-weight="500" fill="#9ab6ff">1,009</text><text x="750.7" y="169" font-size="9" letter-spacing="1.4" text-anchor="start" fill="#8b9098">2026</text><rect x="750.7" y="176" width="110.3" height="2" fill="#9ab6ff"/><text x="2" y="205" font-size="9" letter-spacing="1.4" text-anchor="start" fill="#8b9098">DETAIL</text><rect x="1" y="217" width="878" height="128" fill="none" stroke="#2a2f37"/><line x1="293.7" y1="217" x2="293.7" y2="345" stroke="#2a2f37"/><line x1="586.3" y1="217" x2="586.3" y2="345" stroke="#2a2f37"/><text x="19" y="239" font-size="9" letter-spacing="1.4" text-anchor="start" fill="#8b9098">LAST 12 MONTHS</text><rect x="19.0" y="253" width="6" height="66" fill="#15191e"/><rect x="19.0" y="314.4" width="6" height="4.6" fill="#5a6068"/><text x="22.0" y="333" font-size="8" letter-spacing="0" text-anchor="middle" fill="#5a6068">N</text><rect x="40.4" y="253" width="6" height="66" fill="#15191e"/><rect x="40.4" y="308.0" width="6" height="11.0" fill="#5a6068"/><text x="43.4" y="333" font-size="8" letter-spacing="0" text-anchor="middle" fill="#5a6068">D</text><rect x="61.8" y="253" width="6" height="66" fill="#15191e"/><rect x="61.8" y="318.8" width="6" height="0.2" fill="#5a6068"/><text x="64.8" y="333" font-size="8" letter-spacing="0" text-anchor="middle" fill="#5a6068">J</text><rect x="83.2" y="253" width="6" height="66" fill="#15191e"/><text x="86.2" y="333" font-size="8" letter-spacing="0" text-anchor="middle" fill="#5a6068">F</text><rect x="104.6" y="253" width="6" height="66" fill="#15191e"/><rect x="104.6" y="253.0" width="6" height="66.0" fill="#9ab6ff"/><text x="107.6" y="333" font-size="8" letter-spacing="0" text-anchor="middle" fill="#5a6068">M</text><rect x="125.9" y="253" width="6" height="66" fill="#15191e"/><rect x="125.9" y="299.8" width="6" height="19.2" fill="#5a6068"/><text x="128.9" y="333" font-size="8" letter-spacing="0" text-anchor="middle" fill="#5a6068">A</text><rect x="147.3" y="253" width="6" height="66" fill="#15191e"/><rect x="147.3" y="287.2" width="6" height="31.8" fill="#5a6068"/><text x="150.3" y="333" font-size="8" letter-spacing="0" text-anchor="middle" fill="#5a6068">M</text><rect x="168.7" y="253" width="6" height="66" fill="#15191e"/><rect x="168.7" y="297.7" width="6" height="21.3" fill="#5a6068"/><text x="171.7" y="333" font-size="8" letter-spacing="0" text-anchor="middle" fill="#5a6068">J</text><rect x="190.1" y="253" width="6" height="66" fill="#15191e"/><rect x="190.1" y="318.1" width="6" height="0.9" fill="#5a6068"/><text x="193.1" y="333" font-size="8" letter-spacing="0" text-anchor="middle" fill="#5a6068">J</text><rect x="211.5" y="253" width="6" height="66" fill="#15191e"/><text x="214.5" y="333" font-size="8" letter-spacing="0" text-anchor="middle" fill="#5a6068">A</text><rect x="232.9" y="253" width="6" height="66" fill="#15191e"/><rect x="232.9" y="279.8" width="6" height="39.2" fill="#5a6068"/><text x="235.9" y="333" font-size="8" letter-spacing="0" text-anchor="middle" fill="#5a6068">S</text><rect x="254.3" y="253" width="6" height="66" fill="#15191e"/><rect x="254.3" y="318.5" width="6" height="0.5" fill="#5a6068"/><text x="257.3" y="333" font-size="8" letter-spacing="0" text-anchor="middle" fill="#5a6068">O</text><text x="275.7" y="239" font-size="9" letter-spacing="1" text-anchor="end" fill="#9ab6ff">PEAK MAR · 372</text><text x="311.6666666666667" y="239" font-size="9" letter-spacing="1.4" text-anchor="start" fill="#8b9098">BY WEEKDAY</text><text x="311.6666666666667" y="260" font-size="8" letter-spacing="1" text-anchor="start" fill="#5a6068">MON</text><rect x="341.7" y="256" width="162.8" height="2" fill="#5a6068"/><text x="510.5" y="260" font-size="8" letter-spacing="0" text-anchor="start" fill="#8b9098">322</text><text x="311.6666666666667" y="272" font-size="8" letter-spacing="1" text-anchor="start" fill="#5a6068">TUE</text><rect x="341.7" y="268" width="138.6" height="2" fill="#5a6068"/><text x="486.2" y="272" font-size="8" letter-spacing="0" text-anchor="start" fill="#8b9098">274</text><text x="311.6666666666667" y="284" font-size="8" letter-spacing="1" text-anchor="start" fill="#5a6068">WED</text><rect x="341.7" y="280" width="143.6" height="2" fill="#5a6068"/><text x="491.3" y="284" font-size="8" letter-spacing="0" text-anchor="start" fill="#8b9098">284</text><text x="311.6666666666667" y="296" font-size="8" letter-spacing="1" text-anchor="start" fill="#5a6068">THU</text><rect x="341.7" y="292" width="192.7" height="2" fill="#9ab6ff"/><text x="540.3" y="296" font-size="8" letter-spacing="0" text-anchor="start" fill="#8b9098">381</text><text x="311.6666666666667" y="308" font-size="8" letter-spacing="1" text-anchor="start" fill="#5a6068">FRI</text><rect x="341.7" y="304" width="147.2" height="2" fill="#5a6068"/><text x="494.8" y="308" font-size="8" letter-spacing="0" text-anchor="start" fill="#8b9098">291</text><text x="311.6666666666667" y="320" font-size="8" letter-spacing="1" text-anchor="start" fill="#5a6068">SAT</text><rect x="341.7" y="316" width="158.8" height="2" fill="#5a6068"/><text x="506.5" y="320" font-size="8" letter-spacing="0" text-anchor="start" fill="#8b9098">314</text><text x="311.6666666666667" y="332" font-size="8" letter-spacing="1" text-anchor="start" fill="#5a6068">SUN</text><rect x="341.7" y="328" width="152.2" height="2" fill="#5a6068"/><text x="499.9" y="332" font-size="8" letter-spacing="0" text-anchor="start" fill="#8b9098">301</text><text x="604.3333333333334" y="239" font-size="9" letter-spacing="1.4" text-anchor="start" fill="#8b9098">TOP PUBLIC REPOS</text><text x="604.3333333333334" y="260" font-size="10" letter-spacing="0" text-anchor="start" fill="#e6e8eb">redline-studio</text><text x="861.0" y="260" font-size="9" letter-spacing="0" text-anchor="end" fill="#8b9098">213</text><rect x="754.3" y="257" width="72.7" height="2" fill="#9ab6ff"/><text x="604.3333333333334" y="274" font-size="10" letter-spacing="0" text-anchor="start" fill="#e6e8eb">GhostProtocol</text><text x="861.0" y="274" font-size="9" letter-spacing="0" text-anchor="end" fill="#8b9098">72</text><rect x="754.3" y="271" width="24.6" height="2" fill="#5a6068"/><text x="604.3333333333334" y="288" font-size="10" letter-spacing="0" text-anchor="start" fill="#e6e8eb">PrintFlow_3D</text><text x="861.0" y="288" font-size="9" letter-spacing="0" text-anchor="end" fill="#8b9098">51</text><rect x="754.3" y="285" width="17.4" height="2" fill="#5a6068"/><text x="604.3333333333334" y="302" font-size="10" letter-spacing="0" text-anchor="start" fill="#e6e8eb">x3beche.github.io</text><text x="861.0" y="302" font-size="9" letter-spacing="0" text-anchor="end" fill="#8b9098">49</text><rect x="754.3" y="299" width="16.7" height="2" fill="#5a6068"/><text x="604.3333333333334" y="316" font-size="10" letter-spacing="0" text-anchor="start" fill="#e6e8eb">AX45-S</text><text x="861.0" y="316" font-size="9" letter-spacing="0" text-anchor="end" fill="#8b9098">32</text><rect x="754.3" y="313" width="10.9" height="2" fill="#5a6068"/><text x="604.3333333333334" y="330" font-size="10" letter-spacing="0" text-anchor="start" fill="#e6e8eb">agile-robotics.githu…</text><text x="861.0" y="330" font-size="9" letter-spacing="0" text-anchor="end" fill="#8b9098">22</text><rect x="754.3" y="327" width="7.5" height="2" fill="#5a6068"/><text x="2" y="367" font-size="9" letter-spacing="1.4" text-anchor="start" fill="#9ab6ff">X3BECHE.GITHUB.IO</text><text x="132" y="367" font-size="9" letter-spacing="0.4" text-anchor="start" fill="#8b9098">26 decks · 375 guides · 3222 sections · ~980k words</text><text x="878" y="367" font-size="8" letter-spacing="1" text-anchor="end" fill="#5a6068">UPDATED 2026-10-02</text></svg>